<svg viewBox="0 0 575 1601" fill="none" xmlns="http://www.w3.org/2000/svg">
<path d="M97.5 133C140.853 133 176 103.229 176 66.495C176 29.7706 140.853 0 97.5 0C54.1465 0 19 29.7706 19 66.495C19 103.229 54.1465 133 97.5 133Z" fill="#422204"/>
<path d="M94.2863 965.7L103.267 1153.46C103.267 1153.46 60.1497 1229.91 94.2863 1370.73C128.423 1511.55 103.267 1550.45 103.267 1550.45L225.426 1562.52L218.242 1510.21L168.408 1465.07L189.502 1334.47V1208.41C189.502 1208.41 257.767 1107.86 259.563 1089.09C261.359 1070.31 255.971 933.51 255.971 933.51L94.2863 965.7Z" fill="#FFB9B9"/>
<path d="M183.84 981.98C183.84 981.98 200.908 1074.3 260.652 1141.56C260.652 1141.56 291.382 1196.95 286.258 1214.1C281.135 1231.24 281.135 1324.88 332.349 1407.97L380.139 1529.31L404.038 1572.83L445.005 1586.02L481.5 1580.5L465.5 1532.5L431 1489C431 1489 421.106 1443.58 421.106 1396.1C421.106 1348.62 398.914 1236.52 398.914 1236.52C398.914 1236.52 398.915 983.3 363.07 967.47C327.226 951.64 183.84 981.98 183.84 981.98Z" fill="#FFB9B9"/>
<path d="M464 1516.5L375.14 1524.03L365.84 1494.1L347.665 1449.2L328.217 1400.23L312.148 1368.94L296.93 1331.3L291.01 1299.55L285.091 1270.08V1249.22V1234.71H291.01L312.148 1240.15H347.665H381.059H399.242C402.339 1255.87 408.878 1287.76 410.231 1289.58C411.921 1291.85 415.301 1338.55 415.301 1338.55C415.301 1338.55 424.327 1395.39 426.3 1422.45L430.945 1449.2L451 1494.1L464 1516.5Z" fill="#EEEEEE"/>
<path d="M199.271 1493.19L107.532 1504.07L112.177 1463.71L102.029 1402.04L87.2342 1347.62L84.279 1323.14L80.0497 1291.85V1267.36V1245.14V1232.89V1220.2H113.452L188.282 1226.09C191.379 1241.81 193.352 1291.85 193.352 1291.85C190.883 1290.66 188.282 1342.64 188.282 1342.64C188.282 1342.64 189.972 1375.29 178.973 1402.04L176.239 1424.26L185.317 1474.14L199.271 1493.19Z" fill="#EEEEEE"/>
<path d="M186 311C257.799 311 316 248.545 316 171.5C316 94.4546 257.799 32 186 32C114.201 32 56 94.4546 56 171.5C56 248.545 114.201 311 186 311Z" fill="#422204"/>
<path d="M3.5 157L1 155.5" stroke="black"/>
<path d="M197.004 295C245.052 295 284 260.077 284 217.005C284 173.923 245.052 139 197.004 139C148.955 139 110 173.923 110 217.005C110 260.077 148.955 295 197.004 295Z" fill="#FFB9B9"/>
<path d="M152.397 259C152.397 259 176.034 306.582 139.794 319.798C103.553 333.015 117.733 411 117.733 411L259.55 385.891C259.55 385.891 250.866 360.54 222.5 346C194.141 331.46 269 259 269 259H152.397Z" fill="#FFB9B9"/>
<path d="M89 621.721L90.957 666.082L179 697L170.522 615L89 621.721Z" fill="#FFB9B9"/>
<path d="M133.75 1492.22C133.75 1492.22 133.75 1478.21 124.875 1477.13C116 1476.05 104.17 1472.82 104.17 1477.13C104.17 1481.44 102.693 1511.62 99.7376 1515.93C96.7823 1520.24 90.8627 1536.4 95.2957 1542.87C95.2957 1542.87 81.9876 1567.66 92.3401 1569.81C102.693 1571.97 161.844 1571.97 161.844 1571.97L164.808 1560.11C164.808 1560.11 274.898 1587.05 303 1560.11C303 1560.11 314.16 1547.18 290.5 1542.87C290.5 1542.87 260.926 1540.72 241.708 1524.55C222.48 1508.38 185.504 1470.66 185.504 1470.66C185.504 1470.66 155.933 1473.9 158.888 1487.91V1492.22H133.75Z" fill="#202020"/>
<path d="M399.23 1518.86C399.23 1518.86 398.633 1504.86 389.72 1504.16C380.807 1503.46 366.602 1501.37 366.786 1505.67C366.97 1509.98 369.027 1539.57 366.258 1544C363.489 1548.43 358.263 1564.83 362.968 1571.1C362.968 1571.1 350.728 1596.44 361.163 1598.15C371.598 1599.86 430.695 1597.34 430.695 1597.34L433.151 1585.37C433.151 1585.37 544.289 1607.59 571.218 1579.48C571.218 1579.48 581.817 1566.09 557.995 1562.79C557.995 1562.79 528.357 1561.9 508.467 1546.56C488.568 1531.23 450.018 1495.12 450.018 1495.12C450.018 1495.12 420.612 1499.61 424.161 1513.49L424.345 1517.79L399.23 1518.86Z" fill="#202020"/>
<path d="M122 656.642L115 669L94.1746 753.703C94.1746 753.703 84.5 776 65.1656 825.149C48.2826 840.053 -8.12064 1114.35 15.8426 1128.32C39.8059 1142.31 355.88 1202.29 428 1112.97L364.623 860.83C364.623 860.83 297.965 679.441 294.085 679.719C290.205 679.998 122 656.642 122 656.642Z" fill="#51502C"/>
<path d="M284.781 384.65C284.781 384.65 176.715 280.07 101 342C101 342 89.4462 500.49 89.4462 524.11C84.907 549.44 68.2457 657.73 89.4462 667.58C110.647 677.43 112.629 663.54 167.143 670.58C221.648 677.62 296.5 685.45 296.5 677C296.5 668.56 299.4 569.77 310 558.5C320.6 547.24 348.373 494.44 330.208 467.7C312.033 440.95 284.781 384.65 284.781 384.65Z" fill="#EEEEEE"/>
<path d="M157.64 651.92L337.64 715.35C337.64 715.35 409.639 784.18 425.84 745.04C442.041 705.9 371.839 677.56 371.839 677.56L251.246 626.27L157.64 649.22V651.92Z" fill="#FFB9B9"/>
<path opacity="0.1" d="M170.257 395.45C170.257 395.45 67.9007 631.61 161.277 669.18C254.652 706.75 269.022 635.63 269.022 635.63C269.022 635.63 206.173 606.11 225.922 569.88C245.671 533.65 263.633 395.45 263.633 395.45H170.257Z" fill="black"/>
<path d="M164.887 385.83C164.887 385.83 62.53 623.58 155.906 661.41C249.282 699.23 263.642 627.64 263.642 627.64C263.642 627.64 200.793 597.92 220.551 561.44C240.3 524.97 258.262 385.83 258.262 385.83H164.887Z" fill="#EEEEEE"/>
<path d="M204 217C265.858 217 316 194.617 316 166.995C316 139.384 265.858 117 204 117C142.142 117 92 139.384 92 166.995C92 194.617 142.142 217 204 217Z" fill="#422204"/>
<path d="M111 252C119.839 252 127 242.825 127 231.5C127 220.184 119.839 211 111 211C102.169 211 95 220.184 95 231.5C95 242.825 102.169 252 111 252Z" fill="#FFB9B9"/>
<path d="M147.694 303.26L127.397 329.11H169.673L229.709 354.51L222.94 320.95L147.694 303.26Z" fill="#DDDDDD"/>
</svg>
