<svg width="1085" height="2359" viewBox="0 0 1085 2359" fill="none" xmlns="http://www.w3.org/2000/svg">
<path d="M972.647 1174.43L935.842 1929.73L972.647 1930.3L1002.54 1163.83L972.647 1174.43Z" fill="#3F3D56"/>
<path d="M834.629 1556.76H375.733V1671.58H834.629V1556.76Z" fill="#333333"/>
<path d="M865.683 1657.01V1729.79H389.992C373.153 1715.73 356.516 1701.27 340.08 1686.39V1657.01H865.683Z" fill="#3F3D56"/>
<path d="M960.237 1494.89C958.935 1501.74 957.243 1508.51 955.457 1515.26C950.182 1534.74 943.834 1553.98 942.608 1574.23C940.955 1601 947.256 1632.13 930.996 1651.57C926.814 1656.6 921.359 1660.36 917.615 1665.72C917.035 1666.57 916.513 1667.45 916.038 1668.37C912.693 1674.66 912.293 1682.33 912.246 1689.52C912.293 1704.87 913.168 1720.2 914.878 1735.42C920.381 1787.79 931.252 1840.26 916.969 1889.69C914.375 1898.26 911.362 1906.66 907.931 1914.84C900.966 1932.31 893.363 1949.52 891.092 1968.44C889.419 1982.44 889.932 1996.89 889.837 2011.14C882.496 2008.48 875.164 2005.77 867.84 2003C823.6 1986.33 779.856 1967.82 736.607 1947.45C736.723 1946.74 736.839 1946 736.932 1945.29C740.253 1921.74 735.701 1897.68 730.173 1874.72C718.559 1826.08 702.114 1777.92 692.382 1728.93C688.463 1709.8 685.892 1690.34 684.694 1670.74C684.415 1666.35 684.253 1661.94 684.229 1657.52C684.113 1651.75 684.229 1646 684.438 1640.17C684.927 1628.56 685.368 1614.78 677.215 1607.72C672.732 1603.89 666.809 1603.22 661.583 1600.89C651.502 1596.43 644.604 1586.05 636.614 1577.75C632.803 1573.54 628.148 1570.46 623.053 1568.74C617.959 1567.04 612.576 1566.77 607.37 1567.97C555.156 1581.59 516.785 1632.03 468.194 1657.52C466.312 1658.53 464.431 1659.47 462.526 1660.38C456.241 1663 450.259 1666.48 444.712 1670.74C440.813 1673.82 437.986 1678.37 436.721 1683.58C435.49 1689.18 436.559 1695.05 437.162 1700.82C438.14 1710.19 437.787 1719.68 436.117 1728.93C435.488 1732.52 434.657 1736.05 433.632 1739.52C431.774 1745.78 429.289 1751.92 426.92 1758.03C414.531 1748.54 402.322 1738.84 390.29 1728.93C373.474 1715.15 356.859 1700.95 340.445 1686.35L330.48 1677.23C287.526 1638.93 247.281 1596.84 210.118 1551.35C215.065 1535.49 222.219 1520.72 225.656 1504.46C227.607 1495.13 228.328 1485.41 231.022 1476.34C234.129 1466.94 238.45 1458.12 243.843 1450.17C263.594 1418.8 287.712 1391.31 315.243 1368.81C344.022 1345.31 377.26 1326.48 403.158 1299.82C413.668 1289.35 422.728 1277.12 430.032 1263.56C430.473 1262.74 430.891 1261.87 431.263 1260.91C433.284 1256.13 434.685 1251.03 435.42 1245.8C437.278 1233.95 437 1220.92 437.929 1209.55C469.478 1215.77 501.641 1216.87 533.462 1212.83C570.51 1208.1 606.744 1196.38 643.791 1191.83C646.579 1191.47 649.389 1191.18 652.199 1190.91C664.068 1189.83 675.96 1189.59 687.876 1189.74C697.84 1189.74 707.805 1190.24 717.77 1190.62L827.471 1194.85C839.619 1195.33 852.022 1195.86 863.334 1200.91C876.759 1206.91 887.513 1218.87 896.129 1232.01C897.221 1233.71 898.314 1235.4 899.331 1237.14C906.43 1248.92 912.113 1261.72 916.247 1275.2C916.684 1276.57 917.102 1277.85 917.501 1279.35C918.546 1283.04 919.449 1286.73 920.267 1290.49C920.894 1293.42 921.445 1296.36 921.958 1299.33C924.514 1313.98 926.025 1328.94 930.064 1343.09C930.34 1344.13 930.644 1345.16 930.967 1346.16C935.823 1361.67 943.882 1375.55 949.973 1390.44C954.354 1401.22 957.709 1412.51 959.961 1424.11C964.504 1447.4 964.599 1471.54 960.237 1494.89Z" fill="#51502C"/>
<path d="M626.577 547.27C616.761 538.373 602.523 544.884 591.031 550.626C581.397 555.472 571.478 559.548 561.348 562.842C559.274 563.751 557.027 564.016 554.834 563.612C550.182 562.337 548.227 556.053 544.761 552.242C538.736 545.654 528.873 547.207 521.102 550.791C513.332 554.362 505.656 559.523 497.328 558.728C488.441 557.933 480.717 550.475 471.738 550.235C455.919 549.806 442.635 572.004 427.677 566.123C418.558 562.552 415.469 570.224 406.488 574.073C399.51 577.089 394.807 566.893 390.596 574.073C385.641 582.44 375.987 584.8 367.729 588.497C341.697 600.208 324.459 633.233 327.855 664.858C329.74 682.311 337.161 698.312 342.069 714.97C356.632 763.403 351.63 818.046 369.985 864.763C372.311 862.277 373.614 861.343 375.871 858.882C370.067 872.587 368.948 888.26 372.73 902.849C374.661 910.181 377.801 917.02 380.174 924.188C382.639 932.239 384.629 940.467 386.13 948.821L406.368 1050.47C414.278 1090.2 422.211 1129.92 423.583 1170.61C424.438 1197.06 422.659 1223.53 418.28 1249.53C454.942 1242.62 488.487 1224.1 525.639 1224.34C539.271 1224.34 552.786 1226.99 566.303 1229.11C605.709 1235.38 645.457 1238.46 685.247 1238.3C691.436 1238.7 697.633 1237.71 703.486 1235.38C708.603 1232.9 712.791 1228.47 717.629 1225.28C727.097 1218.92 738.566 1217.33 749.477 1217.33C799.236 1216.29 847.182 1237.02 896.613 1244.34C916.133 1197.7 917.292 1141.81 902.315 1093.06C897.868 1078.57 891.89 1064.45 890.123 1049.22C889.419 1039.87 889.229 1030.46 889.571 1021.08C889.486 997.04 885.686 973.202 878.331 950.676C875.447 941.855 871.98 932.883 872.282 923.481C872.586 914.08 876.656 905.309 880.658 896.993C888.773 880.045 896.946 862.933 908.407 848.635C920.162 833.858 934.864 822.601 949.403 811.559L985.297 784.112C980.384 748.815 974.055 711.626 960.912 679.156C947.769 646.686 928.116 616.841 901.526 597.849C892.556 591.716 883.178 586.403 873.469 581.961C859.884 575.449 845.739 569.694 831.014 568.723C814.265 567.637 797.771 572.748 781.231 575.916C729.168 585.91 667.892 584.686 626.577 547.27Z" fill="#EEEEEE"/>
<path d="M1018.65 1159.52L1001.61 1184.04L969.484 1230.26L932.345 1283.68L921.968 1298.6H901.84L403.485 1299.26L91.3876 1299.66H77.4598C75.6029 1293.04 73.8847 1286.43 72.3063 1279.55C69.9856 1269.71 67.95 1259.74 66.2014 1249.66C65.8299 1247.73 65.5049 1245.8 65.2036 1243.83L178.436 1159.45L221.008 1159.19L351.232 1158.34L423.958 1157.88H437.236H445.569L494.037 1157.59L863.448 1155.17L882.343 1155.04H890.541L912.237 1154.91L992.995 1154.38L1008.5 1147.65L1009.64 1149.03L1018.65 1159.52Z" fill="#3F3D56"/>
<path d="M1011.74 1146.81L1009.82 1149.46L997.138 1166.51L971.032 1201.7L916.285 1275.4L431.295 1261.27L65.5805 1250.65C65.2089 1248.72 64.8839 1246.79 64.5817 1244.82C59.0299 1210.79 56.5781 1176.19 57.2652 1141.58L97.8199 1117.87L107.111 1112.41L179.418 1069.98L242.875 1032.85L408.393 1057.41L445.046 1062.84L461.63 1065.29L485.903 1068.9L487.947 1069.21L868.574 1125.57L910.64 1131.79L935.329 1135.45L1011.42 1146.76L1011.74 1146.81Z" fill="#504F60"/>
<path d="M932.392 1273.79L931.993 1284.18L929.694 1342.86L917.292 1665.51L914.669 1735.24L907.76 1914.65L903.864 2016L889.809 2010.95C882.524 2008.29 875.249 2005.56 867.983 2002.8L901.697 1299.33L902.41 1284.58L917.254 1279.29L932.392 1273.79Z" fill="#3F3D56"/>
<path d="M73.5758 1272.83L73.0826 1300.02L72.3584 1339.73C70.2687 1327.19 68.3528 1314.4 66.6138 1301.37L66.4494 1300.07C65.5722 1293.45 64.7606 1286.83 64.0146 1279.94L73.5758 1272.83Z" fill="#3F3D56"/>
<path d="M698.916 872.764C757.989 872.764 805.877 799.28 805.877 708.635C805.877 617.989 757.989 544.506 698.916 544.506C639.843 544.506 591.955 617.989 591.955 708.635C591.955 799.28 639.843 872.764 698.916 872.764Z" fill="#EEBBC1"/>
<path d="M714.443 778.976C796.7 778.976 863.383 702.956 863.383 609.194C863.383 515.418 796.7 439.398 714.443 439.398C632.185 439.398 565.502 515.418 565.502 609.194C565.502 702.956 632.185 778.976 714.443 778.976Z" fill="#FFC1C8"/>
<path d="M717.434 347.781C708.344 348.601 699.317 350.166 690.424 352.463C666.881 358.987 646.525 373.474 626.703 387.684C617.817 394.069 608.674 400.732 603.16 410.109C593.249 426.956 597.088 448.371 591.528 467.073C588.643 476.664 583.339 485.283 578.849 494.217C566.496 518.724 560.028 545.629 553.677 572.281C552.374 577.796 552.002 585.279 557.283 587.4C560.324 588.119 563.487 587.702 566.31 586.226C582.99 579.941 604.184 578.137 616.561 590.895C628.937 603.653 627.89 626.268 642.616 635.972C659.482 647.191 685.818 633.637 701.125 646.862C707.686 652.541 710.059 661.64 715.433 668.48C727.949 684.393 752.028 683.623 772.058 680.405C783.551 678.55 797.649 677.313 804.628 686.513C807.978 690.854 808.932 696.823 812.817 700.747C819.796 707.852 832.568 704.243 839.385 696.962C846.201 689.668 849.458 679.799 855.134 671.609C866.185 655.696 885.611 647.027 897.013 631.303C906.545 618.052 909.433 601.445 912.037 585.431L921.74 526.069C925.674 501.991 929.257 475.679 917.369 454.479C913.13 446.831 907.058 440.256 903.408 432.357C900.966 427.056 899.588 421.466 896.756 416.444C893.392 411.232 889.363 406.6 884.819 402.713L861.858 381.046C854.007 373.222 845.612 366.13 836.756 359.845C803.977 338.077 754.889 343.793 717.434 347.781Z" fill="#2F2E32"/>
<path d="M238.399 784.316C233.456 790.979 228.89 798.172 223.593 804.419C218.935 809.669 214.062 814.616 208.997 819.234C200.823 826.983 193.31 840.244 185.497 848.547C177.346 856.725 170.346 871.035 163.894 881.358C152.759 900.325 146.628 913.743 136.203 933.341C126.986 950.718 113.995 964.448 104.632 981.699C100.525 988.943 97.4742 997.07 95.6247 1005.69C94.244 1014.02 93.6207 1022.54 93.7684 1031.05C93.5814 1045.02 93.414 1059.15 95.6666 1072.81C97.9182 1086.49 102.86 1099.93 111.326 1108.9C119.187 1117.23 129.343 1121.07 139.288 1124.24C144.419 1125.85 149.965 1127.37 154.844 1124.79C158.414 1122.51 161.514 1119.19 163.894 1115.11L189.271 1078.09C206.244 1053.21 223.885 1027.82 247.177 1013.27C254.475 1008.76 262.17 1005.34 269.489 1000.94C293.972 975.373 318.137 942.562 330.96 900.833C333.046 890.485 334.38 879.935 335.736 869.385L339.406 840.448C339.688 838.997 339.688 837.482 339.406 836.031C338.831 834.391 337.907 833.003 336.737 832.006C319.061 813.896 302.511 794.084 287.234 772.757C283.606 767.671 280.207 760.717 276.015 756.465C270.761 751.164 271.157 751.568 264.839 756.465C255.119 764.263 246.233 773.627 238.399 784.316Z" fill="#FFC1C8"/>
<path d="M421.546 977.619C421.311 977.001 420.97 976.445 420.542 975.991C420.115 975.537 419.611 975.171 419.06 974.944C418.508 974.717 417.922 974.616 417.336 974.641C416.748 974.679 416.173 974.843 415.645 975.133C415.116 975.423 414.645 975.84 414.26 976.345C413.874 976.849 413.581 977.43 413.4 978.061C413.219 978.704 413.153 979.373 413.206 980.042C413.258 980.698 413.429 981.354 413.706 981.935L411.388 983.235L480.545 1144.42L493.045 1137.48L423.888 976.193L421.546 977.619Z" fill="#3F3D56"/>
<path d="M1027.75 1082.8C1027.52 1099.67 1026.94 1117.04 1020.83 1132.43C1018.2 1139.1 1014.12 1145.66 1008.01 1147.84C1004.31 1148.83 1000.48 1148.99 996.73 1148.32C951.485 1143.77 905.899 1147.91 861.848 1160.59C873.609 1133.62 866.852 1101.29 870.103 1071.36C871.003 1063.18 872.641 1055.14 873.263 1046.95C875.569 1017.86 864.707 989.62 859.726 960.911C855.402 936.051 855.402 910.458 859.726 885.611C860.574 879.213 862.493 873.054 865.376 867.489C868.754 862.075 873.193 857.646 878.337 854.567C897.013 842.376 919.042 840.975 940.025 842.591C954.165 843.676 982.504 842.136 994.288 852.106C1007.17 863.022 1011.26 899.694 1014.74 916.642C1019.96 942.638 1023.5 969.038 1025.35 995.627C1027.62 1024.6 1028.09 1053.71 1027.75 1082.8Z" fill="#FFC1C8"/>
<path d="M196.316 1141.19L279.961 1204.25L656.362 1188.49L407.751 1141.19H196.316Z" fill="white"/>
<path d="M312.733 637.84C298.986 651.57 287.331 667.748 274.305 682.374C256.44 702.464 252.68 746.746 232.466 763.744C239.713 766.041 262.456 773.31 241.883 755.794C247.184 761.839 244.189 762.823 246.159 771.051C247.043 774.925 247.485 778.963 248.485 782.762C250.811 791.747 255.928 799.495 261.418 806.474C285.006 836.596 318.013 858.895 331.924 896.072C332.378 897.877 333.363 899.467 334.715 900.552C335.847 901.12 337.104 901.284 338.321 901.032C350.906 899.53 360.536 888.033 368.561 876.865C385.309 853.141 399.848 826.955 408.106 798.019C416.363 769.082 417.689 737.092 408.688 708.42C404.197 694.135 397.266 681.011 390.381 668.013C384.348 656.643 378.331 645.298 372.329 633.965C369.189 627.984 365.188 615.831 359.024 612.891C345.718 606.405 321.27 628.173 312.733 637.84Z" fill="#EEEEEE"/>
<path d="M990.751 806.89L1010.59 860.031C988.993 851.424 965.901 848.812 943.226 852.396C920.561 855.967 898.96 865.646 880.228 880.626C868.916 889.838 858.538 901.435 853.431 916.15C850.909 916.692 848.305 916.415 845.916 915.355C843.526 914.282 841.451 912.477 839.927 910.118C836.942 905.347 835.21 899.706 834.937 893.851C833.094 873.445 839.88 853.443 846.597 834.363C849.723 825.428 852.94 816.317 858.491 809.061C864.042 801.817 871.412 797.035 878.781 792.517C902.296 777.702 926.919 765.296 952.359 755.466C963.088 751.516 974.33 751.592 980.345 763.012C987.321 776.654 985.296 792.378 990.751 806.89Z" fill="#EEEEEE"/>
<path d="M197.423 968.546C202.37 973.026 206.713 978.313 211.798 982.591C217.177 986.819 222.899 990.466 228.889 993.469L251.786 1005.96C258.881 1010.15 266.306 1013.57 273.964 1016.18C283.763 1019.16 294.051 1019.45 303.897 1022.22C316.32 1025.7 327.676 1032.94 339.914 1037.13C352.152 1041.32 366.48 1042.02 376.698 1033.28C383.084 1027.83 387.914 1018.82 395.832 1017.47C400.941 1016.71 405.865 1019.5 410.416 1022.22L470.003 1057.77C478.038 1062.56 486.538 1067.89 490.741 1077.04C494.944 1086.18 492.11 1100.07 483.263 1102.44C480.179 1102.84 477.078 1103.04 473.975 1103.04C470.909 1103.46 467.566 1105.52 467.148 1109.03C467.132 1111.2 467.637 1113.34 468.61 1115.22C471.281 1122.18 472.07 1130.5 468.959 1137.26C465.847 1143.99 458.207 1148.18 452.099 1145.16C453.145 1155.35 443.368 1162.49 434.66 1165.21C412.692 1172.03 389.4 1167.85 366.944 1163.53C358.12 1161.84 349.156 1160.1 341.122 1155.62C337.266 1153.48 333.69 1150.75 329.789 1148.76C319.084 1143.36 306.915 1144.07 295.212 1144.31C241.081 1145.4 187.415 1134.01 134.19 1122.68C124.32 1120.57 114.173 1118.33 105.743 1112.13C89.4875 1100.12 83.4502 1075.46 86.1206 1053.64C88.791 1031.81 98.544 1012.05 108.135 992.864L120.559 968.016C122.183 964.204 124.456 960.797 127.246 957.996C145.522 942.158 181.772 954.261 197.423 968.546Z" fill="#FFC1C8"/>
<path d="M905.822 1012.83C893.734 1019.31 879.856 1019.94 867.233 1024.93C854.609 1029.91 843.888 1038.89 832.309 1046.19C802.144 1065.34 767.336 1072.57 733.155 1079.46C712.434 1083.67 691.387 1087.89 670.502 1086.89C642.239 1085.52 615.089 1074.81 587.708 1066.74C560.326 1058.67 531.112 1053.23 503.985 1062.31C489.82 1067.2 476.871 1075.84 466.187 1087.5C455.503 1099.14 447.385 1113.49 442.493 1129.38C436.807 1148.35 436.019 1168.79 437.109 1188.78C442.818 1193.56 450.8 1186.94 453.909 1179.68C457.019 1172.44 458.713 1163.54 464.747 1159.33C475.211 1163.35 477.764 1179.21 486.397 1187.04C491.779 1191.95 498.973 1193.25 505.818 1194.35L541.09 1200.05C549.583 1201.43 559.444 1202.35 565.594 1195.54C568.587 1192.24 570.235 1187.62 572.973 1184.09C578.589 1177.02 587.963 1175.81 596.317 1176.75C622.399 1179.71 646.857 1198.94 672.753 1194.38C681.665 1192.82 689.948 1188.49 698.441 1185.1C748.772 1164.89 804.695 1177.18 857.069 1165.6C877.048 1161.19 896.281 1153.38 915.287 1145.15C925.617 1140.7 936.061 1136.03 944.88 1128.48C953.233 1121.19 959.819 1111.6 964.019 1100.61C968.229 1089.63 969.911 1077.62 968.913 1065.69C966.975 1047.51 958.992 1030.86 946.619 1019.15C942.533 1015.2 937.173 1007.63 932.279 1005.15C922.928 1000.49 913.757 1008.57 905.822 1012.83Z" fill="#FFC1C8"/>
<g opacity="0.1">
<path opacity="0.1" d="M838.024 673.805C834.146 669.893 833.193 663.924 829.849 659.583C822.882 650.396 808.808 651.645 797.335 653.5C777.339 656.706 753.209 657.438 740.807 641.575C735.442 634.748 733.074 625.687 726.524 619.996C711.242 606.758 684.953 620.311 668.115 609.118C653.414 599.35 654.366 576.673 642.104 564.104C629.841 551.523 608.591 553.163 591.94 559.435C589.122 560.911 585.964 561.328 582.928 560.609C577.656 558.488 578.028 551.018 579.329 545.516C585.668 518.901 592.125 492.022 604.457 467.553C608.94 458.631 614.235 450.024 617.114 440.446C622.154 423.649 619.577 404.67 626.196 388.782C619.088 394.082 612.26 399.849 607.871 407.32C597.978 424.129 601.81 445.531 596.259 464.196C593.379 473.774 588.084 482.38 583.602 491.315C571.269 515.771 564.813 542.651 558.473 569.265C557.172 574.767 556.801 582.238 562.073 584.358C565.108 585.077 568.266 584.674 571.084 583.197C587.735 576.913 608.893 575.121 621.248 587.854C633.603 600.587 632.559 623.176 647.259 632.868C664.097 644.074 690.388 630.533 705.669 643.746C712.218 649.424 714.587 658.498 719.952 665.338C732.447 681.225 756.484 680.456 776.479 677.25C787.953 675.395 802.027 674.146 808.993 683.333C812.338 687.687 813.29 693.643 817.169 697.555C824.136 704.66 836.886 701.051 843.69 693.769C848.054 688.595 851.788 682.765 854.792 676.455C848.754 678.55 842.321 678.222 838.024 673.805Z" fill="black"/>
<path opacity="0.1" d="M880.34 644.679C878.844 646.875 877.456 649.159 876.182 651.532C885.1 644.275 894.552 637.499 901.213 628.261C902.953 625.864 904.502 623.315 905.861 620.639C896.595 628.211 886.935 635.177 880.34 644.679Z" fill="black"/>
</g>
<path d="M690.083 816.166L606.294 751.175L590.824 700.785L586.958 767.24L648.188 886.986L690.083 816.166Z" fill="white"/>
<path d="M690.728 816.166L753.247 796.441L807.387 750.443L782.895 821.693L730.688 884.803L690.728 816.166Z" fill="white"/>
<g filter="url(#filter0_i_6_39)">
<path d="M717.153 861.431L689.438 817.617L664.945 858.516V881.143L672.036 901.599L629.497 1079.76L664.945 1084.87H707.485L734.555 1079.76L725.532 1035.96L706.196 901.599L717.153 886.254V861.431Z" fill="#51502C"/>
</g>
<defs>
<filter id="filter0_i_6_39" x="629.497" y="817.617" width="105.058" height="271.255" filterUnits="userSpaceOnUse" color-interpolation-filters="sRGB">
<feFlood flood-opacity="0" result="BackgroundImageFix"/>
<feBlend mode="normal" in="SourceGraphic" in2="BackgroundImageFix" result="shape"/>
<feColorMatrix in="SourceAlpha" type="matrix" values="0 0 0 0 0 0 0 0 0 0 0 0 0 0 0 0 0 0 127 0" result="hardAlpha"/>
<feOffset dy="4"/>
<feGaussianBlur stdDeviation="2"/>
<feComposite in2="hardAlpha" operator="arithmetic" k2="-1" k3="1"/>
<feColorMatrix type="matrix" values="0 0 0 0 0 0 0 0 0 0 0 0 0 0 0 0 0 0 0.25 0"/>
<feBlend mode="normal" in2="shape" result="effect1_innerShadow_6_39"/>
</filter>
</defs>
</svg>
